# xmcd
#
# Track frame offsets:
#	150
#	11208
#	29428
#	48247
#	67442
#	87360
#	103587
#	121309
#	141915
#	161187
#	181656
#
# Disc length: 2664 seconds
#
# Revision: 1
# Processed by: cddbd v1.5.2PL0 Copyright (c) Steve Scherf et al.
# Submitted via: EZCDAudioConverter 8.0.2.1
#
DISCID=9b0a660b
DTITLE=Various Artist - Quà Tặng Sinh Nhật
DYEAR=1999
DGENRE=Contemporary Pop
TTITLE0=Nhóm Bốn Mùa - Happy Birthday
TTITLE1=Minh Ánh - Sinh nhật
TTITLE2=Nhóm Bốn Mùa - Quà Tặng Sinh Nhật
TTITLE3=Lam Trường - Thơ ấu
TTITLE4=Tam ca 3A - Chúc mừng sinh nhật
TTITLE5=Trần Thu Hà - Sinh nhật hồng
TTITLE6=Tấn Đạt, Khắc Dũng - Bài ca mừng sinh nhật
TTITLE7=Nhóm Bốn Mùa - Xa rồi tuổi thơ
TTITLE8=Khắc Dũng - Lời chúc sinh nhật
TTITLE9=Phương Thanh - Sinh nhật của tình yêu
TTITLE10=Tô Hà, Mai Thảo - Thêm một tuổi hồng
EXTD=
EXTT0=
EXTT1=
EXTT2=
EXTT3=
EXTT4=
EXTT5=
EXTT6=
EXTT7=
EXTT8=
EXTT9=
EXTT10=
PLAYORDER=
